<?xml version="1.0" encoding="UTF-8"?>
<svg width="149px" height="30px" viewBox="0 0 149 30" version="1.1" xmlns="http://www.w3.org/2000/svg" xmlns:xlink="http://www.w3.org/1999/xlink">
    <!-- Generator: sketchtool 41 (35326) - http://www.bohemiancoding.com/sketch -->
    <title>A75BA754-F762-4FA6-947E-B44BD4E5F19C</title>
    <desc>Created with sketchtool.</desc>
    <defs></defs>
    <g id="v1" stroke="none" stroke-width="1" fill="none" fill-rule="evenodd">
        <g id="Dev-Test-Desktop" transform="translate(-646.000000, -119.000000)" fill="#FFFFFF">
            <g id="Group" transform="translate(646.000000, 119.000000)">
                <path d="M14.3942221,19.5151237 C13.2927679,19.8848763 12.1683171,20.2628162 11.0536465,20.6375869 C11.0256278,20.565221 11.0028956,20.5007784 10.9761985,20.4379205 C10.5997956,19.5489297 10.0933434,18.7571309 9.10951508,18.4740061 C7.23199424,17.9344315 5.26698088,18.6995552 4.6505683,20.802655 C4.34315499,21.8511676 4.36773748,22.9015291 4.77083748,23.9175563 C5.24028377,25.0999722 6.12075989,25.8304976 7.37922487,26.0431054 C8.06409837,26.1593133 8.75082216,26.1062274 9.40609095,25.8207256 C10.2281506,25.4620656 10.7763666,24.8559355 11.0911811,24.0261051 C11.1210501,23.9476647 11.1495976,23.8686961 11.1881894,23.7638449 C12.2772202,24.1259383 13.3625505,24.4872394 14.4766924,24.8580484 C14.4209192,25.0360578 14.3770408,25.2032388 14.3162454,25.3640812 C13.6517251,27.1151237 12.4321164,28.3170837 10.7039408,29.0256881 C9.72777796,29.4260773 8.71434492,29.544134 7.66998552,29.5084793 C6.60130795,29.4720322 5.58549596,29.2306366 4.63603027,28.7404504 C2.64352681,27.71201 1.38638348,26.0901168 0.905042431,23.9104254 C0.454627747,21.8707117 0.720012925,19.9054768 1.83785547,18.1179872 C2.9583413,16.3270642 4.61065479,15.2727412 6.69197241,14.9465666 C8.42331994,14.6747984 10.0856779,14.9249096 11.6206298,15.8231443 C13.0334623,16.6505977 13.918432,17.8787045 14.368318,19.4366833 C14.3736045,19.4546428 14.3736045,19.4546428 14.3942221,19.5151237" id="Fill-1"></path>
                <path d="M58.4539769,11.0145121 L62.1138605,11.0145121 L62.1138605,16.6859883 C62.5227757,16.1825966 63.0345145,15.8360856 63.5724217,15.5188907 C64.1959711,15.1515152 64.8811089,14.976675 65.5895076,14.9138171 C66.6349243,14.8208507 67.6742615,14.8881985 68.6607331,15.2782875 C70.4909392,16.0022102 71.6624404,17.3494301 72.2664295,19.1997776 C72.6814243,20.4709341 72.7958782,21.7814429 72.6547272,23.1077982 C72.4829141,24.7212399 71.9444782,26.1923269 70.839059,27.4127745 C69.8354061,28.5207117 68.5795844,29.1624965 67.0959121,29.3476369 C66.117106,29.4699194 65.1491374,29.4310954 64.2128881,29.0829997 C63.4014015,28.7803308 62.7241935,28.2938421 62.2055823,27.5947456 C62.1746559,27.5535446 62.1434652,27.5123436 62.1114816,27.4711426 C62.1091026,27.4685015 62.1006441,27.4700862 62.073947,27.4674451 L62.073947,29.0629274 L58.4539769,29.0629274 L58.4539769,11.0145121 L58.4539769,11.0145121 Z M68.9504364,22.1390464 C68.9504364,21.9961635 68.9602166,21.8522241 68.9488505,21.7098693 C68.8991568,21.0913261 68.7926327,20.4846678 68.4875983,19.9342647 C67.8296863,18.7468307 66.5344797,18.100556 65.1821784,18.2460801 C63.8047659,18.3939811 62.8682522,19.1173756 62.3752808,20.3919655 C61.961079,21.4631915 61.9470696,22.5639978 62.3078772,23.6555602 C62.8806756,25.3894356 64.3400298,26.2815958 66.1192207,26.018015 C67.4091407,25.8268001 68.4849551,24.8694051 68.7881391,23.526675 C68.890434,23.0731999 68.9681464,22.1416875 68.9504364,22.1390464 L68.9504364,22.1390464 Z" id="Fill-2"></path>
                <path d="M19.8792897,16.326536 C20.4068881,15.778774 21.0233007,15.4095496 21.7293204,15.185057 C22.6084749,14.9058938 23.5056037,14.833792 24.424936,14.9246455 C25.3939619,15.0207812 26.2519702,15.3794412 27.0026613,15.9773839 C27.790887,16.6062274 28.2645626,17.4479427 28.5214893,18.4151098 C28.6856369,19.0331248 28.7728651,19.6614401 28.7723364,20.3021685 C28.7704861,23.1579789 28.7715434,26.0132611 28.7715434,28.8693356 L28.7715434,29.0587017 L25.037648,29.0587017 L25.037648,28.8107034 C25.037648,26.2150403 25.0400269,23.6196414 25.036062,21.0237142 C25.0350047,20.3774395 24.9028408,19.7657631 24.5478484,19.2069085 C24.2034292,18.6649569 23.6967127,18.3842091 23.089023,18.3099944 C22.6811651,18.2606061 22.2495176,18.2495135 21.8490609,18.3268974 C20.8409144,18.5210175 20.2847686,19.2198499 20.0159472,20.1643036 C19.9334769,20.453767 19.8954137,20.7654156 19.8943564,21.066764 C19.8851049,23.6494857 19.8888055,26.2319433 19.8888055,28.8141368 L19.8888055,29.0592299 L16.1512094,29.0592299 L16.1512094,11.0171532 L19.8792897,11.0171532 L19.8792897,16.326536" id="Fill-3"></path>
                <path d="M88.86014,22.1725883 C88.8450733,24.1940784 88.2003776,25.9720601 86.7714212,27.4286211 C85.8383438,28.3799416 84.7054346,29.0000695 83.4038842,29.2842508 C81.29957,29.7438004 79.2957005,29.4952738 77.479768,28.2885599 C75.789127,27.1650403 74.8052987,25.5568807 74.4585005,23.5662914 C74.1812206,21.9718654 74.3427249,20.419697 75.0083025,18.9351404 C75.7037491,17.3835001 76.8300501,16.2507367 78.368174,15.5249652 C79.5848752,14.9502641 80.866601,14.7611621 82.2022497,14.8520156 C83.7562332,14.9581874 85.1426329,15.4882541 86.3366019,16.4834167 C87.5287205,17.4769947 88.2992363,18.7463025 88.6322894,20.2609675 C88.715817,20.6415485 88.7681539,21.0295246 88.8170546,21.4180289 C88.8485096,21.6665555 88.8783786,22.169419 88.86014,22.1725883 M78.0578531,22.1488185 C78.0953876,22.4837086 78.1123046,22.8220322 78.173893,23.1521685 C78.3401552,24.0430081 78.7416693,24.8173756 79.4635487,25.3764943 C80.1597883,25.9158048 80.9686315,26.1495413 81.8562445,26.0734779 C83.300532,25.9509313 84.2870036,25.2048235 84.813809,23.8671115 C85.1939125,22.9010008 85.2158517,21.9021407 84.962097,20.9011676 C84.7498417,20.063414 84.3232165,19.3500556 83.6058307,18.8500973 C82.8443021,18.31871 81.9836506,18.1243258 81.0674902,18.267737 C80.2705417,18.3916041 79.5719231,18.7227968 79.0342802,19.3529608 C78.3462348,20.1608702 78.0829642,21.1069085 78.0578531,22.1488185" id="Fill-4"></path>
                <path d="M105.086699,22.1725883 C105.071368,24.1940784 104.427201,25.9720601 102.99798,27.4286211 C102.064639,28.3799416 100.931994,29.0000695 99.6301789,29.2842508 C97.5258648,29.7438004 95.5219952,29.4952738 93.7060628,28.2885599 C92.0156861,27.1650403 91.0318578,25.5568807 90.6850596,23.5662914 C90.4077797,21.9718654 90.569284,20.419697 91.2345972,18.9351404 C91.9300438,17.3835001 93.0563449,16.2507367 94.5947331,15.5249652 C95.8114342,14.9502641 97.0931601,14.7611621 98.4285444,14.8520156 C99.982528,14.9581874 101.368928,15.4882541 102.563161,16.4834167 C103.755544,17.4769947 104.52606,18.7463025 104.858848,20.2609675 C104.942376,20.6415485 104.994713,21.0295246 105.043878,21.4180289 C105.075069,21.6665555 105.104673,22.169419 105.086699,22.1725883 M94.2844122,22.1488185 C94.3216824,22.4837086 94.339128,22.8220322 94.4004521,23.1521685 C94.5667143,24.0430081 94.9682283,24.8173756 95.6901077,25.3764943 C96.3863473,25.9158048 97.1949263,26.1495413 98.0830679,26.0734779 C99.5270911,25.9509313 100.513563,25.2048235 101.040104,23.8671115 C101.420736,22.9010008 101.442675,21.9021407 101.18892,20.9011676 C100.976401,20.063414 100.549776,19.3500556 99.8323897,18.8500973 C99.0708612,18.31871 98.2102096,18.1243258 97.2937849,18.267737 C96.497365,18.3916041 95.7982178,18.7227968 95.2608393,19.3529608 C94.5727939,20.1608702 94.309259,21.1069085 94.2844122,22.1488185" id="Fill-5"></path>
                <path d="M131.288199,18.8149708 C130.24569,19.0497637 129.221948,19.2803308 128.181553,19.5151237 C128.14349,19.3843898 128.110185,19.2618432 128.072915,19.1403531 C127.802507,18.2703781 127.099395,17.722352 126.188257,17.6756047 C125.729384,17.6523631 125.273154,17.6663609 124.864767,17.9117181 C124.420168,18.1789964 124.093459,18.524715 124.115398,19.0951904 C124.130729,19.489241 124.33294,19.7647067 124.63956,19.9802196 C124.991116,20.2284821 125.411397,20.2717959 125.814233,20.3687239 C126.728543,20.5884626 127.665585,20.7442869 128.550026,21.0501251 C129.969467,21.5405755 130.994795,22.4892549 131.342122,24.0012788 C131.690242,25.5172644 131.297979,26.8602585 130.214763,27.9821935 C129.506629,28.7161523 128.614258,29.134501 127.629901,29.3373367 C126.355841,29.599861 125.069886,29.5890325 123.832567,29.1804559 C122.147477,28.6234501 120.902228,27.5783709 120.428024,25.7866555 C120.380445,25.6070614 120.352691,25.421921 120.312249,25.2243675 C121.393349,24.98799 122.449075,24.7563664 123.51881,24.5221018 C123.554494,24.9473172 123.706747,25.3057131 123.929047,25.6416597 C124.255492,26.1355435 124.707492,26.4360995 125.28452,26.5451765 C125.89221,26.6600639 126.503864,26.6967751 127.085386,26.4376842 C127.565934,26.2237559 127.860395,25.8447595 127.885506,25.307826 C127.910617,24.7708924 127.650783,24.3633723 127.165213,24.1647623 C126.730658,23.9867528 126.262004,23.8898249 125.806303,23.766486 C124.973935,23.5406728 124.115662,23.3864331 123.31237,23.0850848 C121.914604,22.5605644 121.003995,21.5556297 120.749975,20.0499444 C120.499393,18.5648596 120.966989,17.2995135 122.049411,16.2723937 C122.957642,15.410342 124.057774,14.9579233 125.307252,14.855449 C126.211518,14.7812344 127.108911,14.8250765 127.971148,15.105032 C129.670777,15.6580762 130.845185,16.7356408 131.246964,18.5363358 C131.264938,18.6179455 131.271546,18.7019322 131.288199,18.8149708" id="Fill-6"></path>
                <path d="M49.6671899,11.0160967 L53.3712163,11.0160967 L53.3712163,15.2423686 L56.1469232,15.2423686 L56.1469232,18.7674312 L53.4002924,18.7674312 C53.3899836,18.8242146 53.3772959,18.8603976 53.3775602,18.8965805 C53.3794105,20.880303 53.3817894,22.6527384 53.3860187,24.6372533 C53.3876046,25.3025438 53.8134368,25.882263 54.6043058,25.9142202 C55.1149873,25.9348207 55.6277833,25.9179177 56.1540601,25.9179177 C56.1540601,25.9208229 56.1590823,25.9781346 56.1593467,26.034918 C56.159611,26.9392271 56.1559104,27.8435363 56.1633116,28.7473172 C56.1643689,28.8978593 56.1152039,28.9586044 55.9735242,29.0050876 C55.2125242,29.2528218 54.4316997,29.2919099 53.6416237,29.2522936 C53.0400135,29.2216569 52.4627214,29.1001668 51.9076329,28.8519044 C50.6917247,28.308104 50.0039436,27.3610092 49.759969,26.0782319 C49.6925654,25.7230053 49.6653396,25.3558938 49.6642823,24.9938004 C49.6552952,22.9189602 49.6600531,21.0548791 49.6597887,18.9800389 C49.6597887,18.9221991 49.6547665,18.8646233 49.6508016,18.7777314 L47.1653267,18.7777314 L47.1653267,15.2236169 C47.4854277,15.2236169 49.3529041,15.2391993 49.6677186,15.2212399 L49.6671899,11.0160967" id="Fill-7"></path>
                <path d="M110.580489,25.4235057 L112.12575,23.7958021 L115.831627,29.0774534 C117.224635,29.071643 118.759322,29.0732277 120.152859,29.0726995 C120.214447,29.0726995 120.276036,29.0674173 120.366964,29.0629274 C118.47517,26.3822213 116.599764,23.7247567 114.721185,21.0630664 C116.563551,19.1287323 118.391907,17.20866 120.258061,15.2489714 L119.999813,15.2489714 C118.639317,15.2489714 116.791137,15.2547818 115.381741,15.2447456 L110.570709,20.3832499 L110.570709,11.0176814 L106.857167,11.0176814 L106.857167,29.0634557 L110.580489,29.0634557 L110.580489,25.4235057 L112.12575,23.7958021 L110.580489,25.4235057" id="Fill-8"></path>
                <path d="M45.0329938,29.0629274 L41.4127593,29.0629274 L41.4127593,27.4669169 C41.3860622,27.469558 41.3776037,27.4679733 41.3754891,27.4711426 C41.3435054,27.5118154 41.3117861,27.5530164 41.281124,27.5947456 C40.7627771,28.2938421 40.0855691,28.780859 39.2738182,29.0824715 C38.5350218,29.3579372 37.7758722,29.4400751 37.0074711,29.4023075 C35.594903,29.3325827 33.6375551,28.489811 32.6812169,27.4494857 C31.5530656,26.2211148 31.0056426,24.7373506 30.8319791,23.1077982 C30.6910924,21.7814429 30.8055464,20.4709341 31.2205411,19.1997776 C31.824266,17.3494301 32.9957671,16.001682 34.8262375,15.2782875 C35.8127091,14.8884626 36.8520463,14.8208507 37.8971987,14.9138171 C38.6058617,14.976675 39.2904709,15.1515152 39.914549,15.5188907 C40.4521918,15.8360856 40.9639306,16.1825966 41.3731101,16.6859883 L41.3731101,15.3113011 L45.0329938,15.3113011 L45.0329938,29.0629274 L45.0329938,29.0629274 Z M34.6988315,23.5261468 C35.0020156,24.8694051 36.07783,25.8268001 37.36775,26.018015 C39.1466765,26.2810676 40.6060307,25.3894356 41.1788292,23.6555602 C41.5396367,22.5639978 41.5256273,21.4631915 41.1116899,20.3919655 C40.6187184,19.1173756 39.6816761,18.3939811 38.3045279,18.2460801 C36.9524909,18.100556 35.65702,18.7468307 34.999108,19.9342647 C34.6943379,20.4846678 34.5875495,21.0918543 34.5378558,21.7098693 C34.5264897,21.8522241 34.5365342,21.9961635 34.5365342,22.1390464 C34.5188242,22.1416875 34.5965366,23.0731999 34.6988315,23.5261468 L34.6988315,23.5261468 Z" id="Fill-9"></path>
                <path d="M128.465177,0.661704198 L119.888795,0.661704198 C119.101098,0.661704198 118.462746,1.29952738 118.462746,2.08630803 L118.462746,11.2231582 C118.462746,12.0094106 119.101098,12.647762 119.888795,12.647762 L120.063516,12.647762 L120.063516,12.664665 L120.078318,12.664665 C120.524239,12.664665 124.898866,12.6657214 128.128688,12.6649291 C129.545221,12.664665 130.90413,13.2261607 131.90699,14.2263414 L132.029374,14.348888 L132.029374,4.22294968 C132.029374,2.25613011 130.433627,0.661704198 128.465177,0.661704198" id="Fill-10"></path>
                <path d="M137.898246,4.8235335 L146.877728,4.8235335 C147.66516,4.8235335 148.303512,5.46135669 148.303512,6.24813734 L148.303512,16.4406311 C148.303512,17.2271476 147.66516,17.8652349 146.877728,17.8652349 L146.703007,17.8652349 L146.703007,17.882402 L146.688205,17.882402 C146.242019,17.882402 141.464822,17.8829302 138.234999,17.882402 C136.818202,17.882402 135.459557,18.4436336 134.456697,19.4438143 L134.334049,19.5660967 L134.334049,8.38451487 C134.334049,6.41795941 135.929796,4.8235335 137.898246,4.8235335" id="Fill-11"></path>
            </g>
        </g>
    </g>
</svg>